<svg width="566" height="556" viewBox="0 0 566 556" fill="none" xmlns="http://www.w3.org/2000/svg">
<path fill-rule="evenodd" clip-rule="evenodd" d="M264.153 447.472C267.184 438.495 274.301 431.468 281.689 425.03C296.072 412.498 303.808 404.748 308.934 386.415C311.949 375.633 315.017 364.207 324.579 356.384C331.541 350.687 343.524 345.901 352.834 349.98C367.158 357.571 371.005 373.148 369.561 387.096C367.77 404.383 358.674 415.043 341.201 421.41C331.355 424.996 324.81 429.728 319.465 437.974C315.19 444.567 312.697 452.823 307.325 458.8C299.293 467.734 289.242 471.706 276.854 470.222C288.457 451.267 302.015 432.135 318.368 416.175C319.899 414.571 328.927 408.43 327.106 405.695C325.1 402.685 315.832 413.994 315.897 413.926C311.145 418.769 306.748 423.916 302.429 429.111C302.44 429.117 302.453 429.119 302.465 429.125C298.019 434.456 293.609 439.866 289.282 445.344C287.532 447.662 285.829 450.008 284.199 452.414C281.807 455.944 278.01 465.963 274.094 468.133C273.257 468.597 272.482 468.857 271.758 468.964C269.087 472.847 266.488 476.761 264.016 480.721C257.561 491.065 252.02 501.987 249.477 513.665C248.735 517.073 249.26 529.823 246.639 532.284C241.848 536.784 243.252 528.117 243.538 525.501C245.918 503.838 254.678 485.383 267.396 467.171C263.489 462.64 262.925 451.109 264.153 447.472Z" fill="#026735"/>
<path fill-rule="evenodd" clip-rule="evenodd" d="M428.257 457.939C423.206 452.655 411.063 451.758 403.637 452.112C394.447 452.55 385.009 454.536 376.266 456.937C361.864 460.893 347.87 468.111 335.186 475.098C333.657 475.94 314.825 485.994 316.492 487.758C318.144 489.507 336.631 477.563 340.751 475.505C349.543 471.111 357.606 465.915 367.297 463.013C377.332 460.009 387.944 458.819 398.496 458.901C399.85 458.911 404.268 458.073 404.363 459.852C404.456 461.592 397.147 460.684 395.858 460.694C390.535 460.738 385.178 461.183 379.93 462.002C370.098 463.536 360.854 466.627 352.433 471.369C354.783 476.219 360.416 478.456 366.325 477.242C371.432 476.192 376.41 473.604 381.411 472.856C384.855 472.341 388.304 472.647 391.643 473.509C400.453 475.782 405.534 480.438 415.22 477.199C422.813 474.66 435.512 465.538 428.257 457.939Z" fill="#52B848"/>
<path fill-rule="evenodd" clip-rule="evenodd" d="M422.544 407.934H420.154C420.322 405.242 420.54 402.554 421.052 399.892C422.973 389.912 428.98 375.255 442.153 373.635C442.639 373.575 444.427 373.565 446.592 373.676C447.618 373.173 448.768 372.868 449.979 372.798C461.195 372.072 473.721 380.019 479.131 388.289C483.492 394.957 482.758 403.713 480.064 410.797C478.26 415.54 474.323 422.302 467.757 422.368C459.543 422.45 459.147 413.534 458.988 408.321C458.777 401.391 457.78 395.354 451.562 390.63C450.113 389.529 448.529 388.561 447.066 387.476C444.774 385.777 442.241 384.038 441.946 381.228C441.538 377.351 444.03 376.654 447.834 377.374C448.482 377.497 455.015 380.071 454.048 378.036C453.752 377.415 452.674 376.922 451.313 376.553C447.79 376.216 443.589 375.826 442.381 376.059C429.347 378.571 424.272 394.428 422.925 404.503C422.772 405.643 422.65 406.788 422.544 407.934Z" fill="#52B848"/>
<path fill-rule="evenodd" clip-rule="evenodd" d="M225.995 430.2C222.854 419.733 215.478 411.542 207.822 404.036C192.918 389.425 184.902 380.39 179.59 359.016C176.466 346.446 173.287 333.124 163.378 324.004C156.164 317.363 143.747 311.783 134.099 316.539C119.256 325.388 115.27 343.548 116.767 359.81C118.622 379.965 128.047 392.392 146.154 399.816C156.357 403.997 163.139 409.513 168.677 419.126C173.107 426.813 175.69 436.438 181.257 443.406C189.58 453.823 199.996 458.454 212.833 456.723C200.809 434.625 186.76 412.319 169.814 393.713C168.228 391.842 158.873 384.682 160.759 381.494C162.838 377.984 172.443 391.17 172.375 391.09C177.299 396.736 181.856 402.736 186.331 408.794C186.319 408.8 186.306 408.803 186.294 408.809C190.901 415.025 195.471 421.333 199.954 427.719C201.768 430.421 203.532 433.157 205.222 435.962C207.701 440.077 211.635 451.757 215.692 454.288C216.56 454.829 217.363 455.132 218.113 455.256C220.881 459.783 223.574 464.347 226.136 468.964C232.825 481.023 238.567 493.756 241.202 507.371C241.971 511.345 241.427 526.209 244.143 529.078C249.108 534.325 247.653 524.221 247.356 521.171C244.89 495.915 235.813 474.398 222.633 453.166C226.682 447.884 227.267 434.44 225.995 430.2Z" fill="#026735"/>
<path fill-rule="evenodd" clip-rule="evenodd" d="M55.9429 442.402C61.1772 436.242 73.76 435.197 81.4556 435.609C90.9781 436.12 100.759 438.435 109.818 441.235C124.742 445.846 139.244 454.262 152.387 462.407C153.971 463.389 173.486 475.111 171.758 477.168C170.047 479.206 150.89 465.282 146.621 462.882C137.51 457.76 129.155 451.702 119.112 448.319C108.714 444.816 97.7172 443.428 86.7828 443.524C85.3794 443.537 80.8019 442.559 80.7032 444.633C80.6065 446.661 88.1805 445.603 89.5164 445.615C95.0326 445.666 100.583 446.184 106.021 447.139C116.21 448.928 125.789 452.532 134.515 458.06C132.08 463.715 126.243 466.322 120.12 464.907C114.828 463.683 109.669 460.666 104.487 459.794C100.918 459.193 97.3446 459.551 93.8838 460.555C84.755 463.205 79.49 468.634 69.453 464.858C61.5847 461.897 48.4256 451.262 55.9429 442.402Z" fill="#026735"/>
<path fill-rule="evenodd" clip-rule="evenodd" d="M61.8631 384.105H64.3394C64.1659 380.966 63.9399 377.832 63.4089 374.728C61.4183 363.093 55.1943 346.005 41.5435 344.117C41.0399 344.047 39.1874 344.035 36.9434 344.165C35.8799 343.578 34.6885 343.222 33.4333 343.141C21.811 342.294 8.83165 351.559 3.22544 361.201C-1.29396 368.975 -0.5326 379.183 2.25886 387.442C4.12814 392.972 8.20784 400.855 15.0113 400.932C23.5232 401.028 23.9337 390.632 24.0983 384.555C24.3171 376.476 25.3503 369.437 31.7931 363.93C33.2947 362.647 34.936 361.518 36.4528 360.253C38.8278 358.273 41.4525 356.245 41.7584 352.969C42.1808 348.449 39.5989 347.636 35.6567 348.476C34.9847 348.619 28.2154 351.62 29.2177 349.248C29.5237 348.523 30.6413 347.949 32.0519 347.518C35.7022 347.126 40.0554 346.671 41.3074 346.943C54.8136 349.871 60.0721 368.358 61.4687 380.104C61.6268 381.434 61.7532 382.768 61.8631 384.105Z" fill="#52B848"/>
<g clip-path="url(#clip0_1_105)">
<path fill-rule="evenodd" clip-rule="evenodd" d="M253.371 422.889C250.23 410.694 242.854 401.149 235.198 392.404C220.294 375.378 212.278 364.852 206.966 339.947C203.843 325.299 200.663 309.778 190.755 299.151C183.54 291.412 171.123 284.91 161.475 290.452C146.632 300.763 142.646 321.923 144.143 340.871C145.998 364.356 155.424 378.836 173.531 387.486C183.733 392.358 190.515 398.786 196.054 409.986C200.484 418.943 203.067 430.158 208.634 438.278C216.957 450.415 227.372 455.811 240.21 453.794C228.185 428.045 214.136 402.054 197.191 380.375C195.605 378.195 186.249 369.853 188.136 366.138C190.215 362.048 199.819 377.412 199.751 377.319C204.675 383.898 209.232 390.889 213.707 397.948C213.696 397.954 213.682 397.958 213.67 397.965C218.277 405.208 222.847 412.558 227.331 419.999C229.144 423.147 230.908 426.335 232.598 429.603C235.077 434.398 239.012 448.008 243.069 450.957C243.937 451.587 244.739 451.94 245.489 452.085C248.257 457.36 250.951 462.677 253.512 468.057C260.202 482.109 265.943 496.945 268.578 512.809C269.347 517.439 268.803 534.759 271.519 538.102C276.484 544.216 275.029 532.442 274.732 528.889C272.266 499.46 263.189 474.389 250.009 449.649C254.058 443.495 254.643 427.83 253.371 422.889Z" fill="#026735" fill-opacity="0.5"/>
<path fill-rule="evenodd" clip-rule="evenodd" d="M83.3191 437.108C88.5534 429.93 101.136 428.712 108.832 429.193C118.354 429.787 128.135 432.485 137.195 435.747C152.119 441.121 166.62 450.927 179.764 460.418C181.347 461.561 200.862 475.22 199.134 477.617C197.423 479.992 178.266 463.767 173.997 460.971C164.887 455.002 156.531 447.943 146.489 444.002C136.09 439.92 125.093 438.303 114.159 438.415C112.756 438.429 108.178 437.291 108.079 439.707C107.983 442.07 115.557 440.837 116.893 440.851C122.409 440.91 127.959 441.515 133.397 442.627C143.586 444.712 153.165 448.911 161.891 455.352C159.457 461.941 153.619 464.979 147.496 463.33C142.204 461.904 137.045 458.389 131.863 457.373C128.294 456.673 124.721 457.089 121.26 458.259C112.131 461.347 106.866 467.673 96.8292 463.273C88.9609 459.823 75.8018 447.431 83.3191 437.108Z" fill="#026735" fill-opacity="0.5"/>
<path fill-rule="evenodd" clip-rule="evenodd" d="M89.2393 369.179H91.7155C91.5421 365.522 91.3161 361.87 90.7851 358.254C88.7945 344.697 82.5705 324.786 68.9196 322.586C68.416 322.504 66.5636 322.49 64.3196 322.642C63.256 321.957 62.0647 321.544 60.8095 321.449C49.1872 320.462 36.2078 331.258 30.6016 342.492C26.0822 351.551 26.8436 363.445 29.6351 373.068C31.5043 379.511 35.584 388.697 42.3875 388.786C50.8994 388.898 51.3099 376.786 51.4745 369.704C51.6933 360.29 52.7265 352.089 59.1693 345.672C60.6709 344.177 62.3122 342.862 63.829 341.388C66.204 339.08 68.8287 336.718 69.1346 332.9C69.557 327.634 66.9751 326.686 63.0329 327.665C62.3609 327.831 55.5916 331.329 56.5939 328.564C56.8998 327.72 58.0175 327.051 59.4281 326.549C63.0784 326.092 67.4316 325.562 68.6835 325.879C82.1898 329.29 87.4483 350.831 88.8449 364.517C89.003 366.067 89.1294 367.622 89.2393 369.179Z" fill="#026735" fill-opacity="0.5"/>
</g>
<g clip-path="url(#clip1_1_105)">
<path fill-rule="evenodd" clip-rule="evenodd" d="M267.835 419.324C270.83 407.721 277.862 398.64 285.161 390.319C299.37 374.12 307.013 364.104 312.077 340.408C315.055 326.472 318.087 311.704 327.533 301.593C334.411 294.23 346.249 288.043 355.448 293.316C369.599 303.127 373.399 323.26 371.972 341.288C370.203 363.632 361.217 377.41 343.954 385.639C334.227 390.275 327.761 396.391 322.481 407.048C318.258 415.569 315.795 426.24 310.487 433.966C302.553 445.514 292.623 450.647 280.383 448.729C291.847 424.23 305.242 399.501 321.397 378.873C322.909 376.8 331.829 368.862 330.03 365.328C328.048 361.437 318.891 376.054 318.956 375.966C314.261 382.226 309.917 388.878 305.651 395.593C305.662 395.6 305.674 395.603 305.686 395.61C301.294 402.502 296.936 409.494 292.662 416.575C290.933 419.57 289.251 422.603 287.64 425.712C285.277 430.275 281.525 443.224 277.658 446.029C276.83 446.629 276.065 446.965 275.35 447.103C272.711 452.122 270.143 457.181 267.701 462.3C261.323 475.669 255.849 489.785 253.337 504.879C252.604 509.284 253.122 525.764 250.533 528.944C245.8 534.761 247.187 523.559 247.47 520.178C249.821 492.178 258.475 468.324 271.04 444.785C267.18 438.929 266.623 424.025 267.835 419.324Z" fill="#026735" fill-opacity="0.5"/>
<path fill-rule="evenodd" clip-rule="evenodd" d="M429.961 432.853C424.971 426.023 412.974 424.865 405.637 425.322C396.559 425.887 387.234 428.454 378.597 431.558C364.368 436.671 350.543 446.001 338.012 455.031C336.502 456.119 317.897 469.115 319.544 471.395C321.175 473.655 339.439 458.218 343.51 455.558C352.195 449.878 360.161 443.162 369.736 439.412C379.649 435.528 390.134 433.99 400.559 434.096C401.897 434.11 406.261 433.027 406.355 435.326C406.447 437.574 399.226 436.401 397.952 436.415C392.693 436.471 387.402 437.046 382.217 438.104C372.503 440.088 363.371 444.083 355.051 450.211C357.372 456.48 362.937 459.371 368.775 457.802C373.821 456.446 378.739 453.101 383.679 452.134C387.082 451.468 390.489 451.864 393.789 452.977C402.492 455.915 407.511 461.934 417.081 457.747C424.582 454.466 437.128 442.674 429.961 432.853Z" fill="#026735" fill-opacity="0.5"/>
<path fill-rule="evenodd" clip-rule="evenodd" d="M424.317 368.222H421.956C422.121 364.742 422.337 361.268 422.843 357.827C424.741 344.928 430.675 325.984 443.689 323.89C444.17 323.812 445.936 323.799 448.075 323.943C449.089 323.292 450.225 322.899 451.421 322.808C462.502 321.869 474.876 332.141 480.221 342.83C484.53 351.449 483.804 362.766 481.143 371.922C479.361 378.052 475.471 386.792 468.985 386.877C460.87 386.984 460.478 375.459 460.321 368.721C460.113 359.764 459.128 351.961 452.985 345.856C451.554 344.433 449.989 343.182 448.543 341.779C446.278 339.584 443.776 337.336 443.484 333.704C443.082 328.693 445.543 327.791 449.302 328.722C449.942 328.881 456.396 332.208 455.441 329.578C455.149 328.775 454.083 328.138 452.738 327.661C449.258 327.226 445.108 326.722 443.914 327.023C431.038 330.269 426.024 350.764 424.693 363.786C424.542 365.261 424.422 366.74 424.317 368.222Z" fill="#026735" fill-opacity="0.5"/>
</g>
<path fill-rule="evenodd" clip-rule="evenodd" d="M264.153 447.472C267.184 438.495 274.301 431.468 281.689 425.03C296.072 412.498 303.808 404.748 308.934 386.415C311.949 375.633 315.017 364.207 324.579 356.384C331.541 350.687 343.524 345.901 352.834 349.98C367.158 357.571 371.005 373.148 369.561 387.096C367.77 404.383 358.674 415.043 341.201 421.41C331.355 424.996 324.81 429.728 319.465 437.974C315.19 444.567 312.697 452.823 307.325 458.8C299.293 467.734 289.242 471.706 276.854 470.222C288.457 451.267 302.015 432.135 318.368 416.175C319.899 414.571 328.927 408.43 327.106 405.695C325.1 402.685 315.832 413.994 315.897 413.926C311.145 418.769 306.748 423.916 302.429 429.111C302.44 429.117 302.453 429.119 302.465 429.125C298.019 434.456 293.609 439.866 289.282 445.344C287.532 447.662 285.829 450.008 284.199 452.414C281.807 455.944 278.01 465.963 274.094 468.133C273.257 468.597 272.482 468.857 271.758 468.964C269.087 472.847 266.488 476.761 264.016 480.721C257.561 491.065 252.02 501.987 249.477 513.665C248.735 517.073 249.26 529.823 246.639 532.284C241.848 536.784 243.252 528.117 243.538 525.501C245.918 503.838 254.678 485.383 267.396 467.171C263.489 462.64 262.925 451.109 264.153 447.472Z" fill="#026735"/>
<path fill-rule="evenodd" clip-rule="evenodd" d="M428.257 457.939C423.206 452.655 411.063 451.758 403.637 452.112C394.447 452.55 385.009 454.536 376.266 456.937C361.864 460.893 347.87 468.111 335.186 475.098C333.657 475.94 314.825 485.994 316.492 487.758C318.144 489.507 336.631 477.563 340.751 475.505C349.543 471.111 357.606 465.915 367.297 463.013C377.332 460.009 387.944 458.819 398.496 458.901C399.85 458.911 404.268 458.073 404.363 459.852C404.456 461.592 397.147 460.684 395.858 460.694C390.535 460.738 385.178 461.183 379.93 462.002C370.098 463.536 360.854 466.627 352.433 471.369C354.783 476.219 360.416 478.456 366.325 477.242C371.432 476.192 376.41 473.604 381.411 472.856C384.855 472.341 388.304 472.647 391.643 473.509C400.453 475.782 405.534 480.438 415.22 477.199C422.813 474.66 435.512 465.538 428.257 457.939Z" fill="#52B848"/>
<path fill-rule="evenodd" clip-rule="evenodd" d="M422.544 407.934H420.154C420.322 405.242 420.54 402.554 421.052 399.892C422.973 389.912 428.98 375.255 442.153 373.635C442.639 373.575 444.427 373.565 446.592 373.676C447.618 373.173 448.768 372.868 449.979 372.798C461.195 372.072 473.721 380.019 479.131 388.289C483.492 394.957 482.758 403.713 480.064 410.797C478.26 415.54 474.323 422.302 467.757 422.368C459.543 422.45 459.147 413.534 458.988 408.321C458.777 401.391 457.78 395.354 451.562 390.63C450.113 389.529 448.529 388.561 447.066 387.476C444.774 385.777 442.241 384.038 441.946 381.228C441.538 377.351 444.03 376.654 447.834 377.374C448.482 377.497 455.015 380.071 454.048 378.036C453.752 377.415 452.674 376.922 451.313 376.553C447.79 376.216 443.589 375.826 442.381 376.059C429.347 378.571 424.272 394.428 422.925 404.503C422.772 405.643 422.65 406.788 422.544 407.934Z" fill="#52B848"/>
<path fill-rule="evenodd" clip-rule="evenodd" d="M225.995 430.2C222.854 419.733 215.478 411.542 207.822 404.036C192.918 389.425 184.902 380.39 179.59 359.016C176.466 346.446 173.287 333.124 163.378 324.004C156.164 317.363 143.747 311.783 134.099 316.539C119.256 325.388 115.27 343.548 116.767 359.81C118.622 379.965 128.047 392.392 146.154 399.816C156.357 403.997 163.139 409.513 168.677 419.126C173.107 426.813 175.69 436.438 181.257 443.406C189.58 453.823 199.996 458.454 212.833 456.723C200.809 434.625 186.76 412.319 169.814 393.713C168.228 391.842 158.873 384.682 160.759 381.494C162.838 377.984 172.443 391.17 172.375 391.09C177.299 396.736 181.856 402.736 186.331 408.794C186.319 408.8 186.306 408.803 186.294 408.809C190.901 415.025 195.471 421.333 199.954 427.719C201.768 430.421 203.532 433.157 205.222 435.962C207.701 440.077 211.635 451.757 215.692 454.288C216.56 454.829 217.363 455.132 218.113 455.256C220.881 459.783 223.574 464.347 226.136 468.964C232.825 481.023 238.567 493.756 241.202 507.371C241.971 511.345 241.427 526.209 244.143 529.078C249.108 534.325 247.653 524.221 247.356 521.171C244.89 495.915 235.813 474.398 222.633 453.166C226.682 447.884 227.267 434.44 225.995 430.2Z" fill="#026735"/>
<path fill-rule="evenodd" clip-rule="evenodd" d="M55.9429 442.402C61.1772 436.242 73.76 435.197 81.4556 435.609C90.9781 436.12 100.759 438.435 109.818 441.235C124.742 445.846 139.244 454.262 152.387 462.407C153.971 463.389 173.486 475.111 171.758 477.168C170.047 479.206 150.89 465.282 146.621 462.882C137.51 457.76 129.155 451.702 119.112 448.319C108.714 444.816 97.7172 443.428 86.7828 443.524C85.3794 443.537 80.8019 442.559 80.7032 444.633C80.6065 446.661 88.1805 445.603 89.5164 445.615C95.0326 445.666 100.583 446.184 106.021 447.139C116.21 448.928 125.789 452.532 134.515 458.06C132.08 463.715 126.243 466.322 120.12 464.907C114.828 463.683 109.669 460.666 104.487 459.794C100.918 459.193 97.3446 459.551 93.8838 460.555C84.755 463.205 79.49 468.634 69.453 464.858C61.5847 461.897 48.4256 451.262 55.9429 442.402Z" fill="#026735"/>
<path fill-rule="evenodd" clip-rule="evenodd" d="M61.8631 384.105H64.3394C64.1659 380.966 63.9399 377.832 63.4089 374.728C61.4183 363.093 55.1943 346.005 41.5435 344.117C41.0399 344.047 39.1874 344.035 36.9434 344.165C35.8799 343.578 34.6885 343.222 33.4333 343.141C21.811 342.294 8.83165 351.559 3.22544 361.201C-1.29396 368.975 -0.5326 379.183 2.25886 387.442C4.12814 392.972 8.20784 400.855 15.0113 400.932C23.5232 401.028 23.9337 390.632 24.0983 384.555C24.3171 376.476 25.3503 369.437 31.7931 363.93C33.2947 362.647 34.936 361.518 36.4528 360.253C38.8278 358.273 41.4525 356.245 41.7584 352.969C42.1808 348.449 39.5989 347.636 35.6567 348.476C34.9847 348.619 28.2154 351.62 29.2177 349.248C29.5237 348.523 30.6413 347.949 32.0519 347.518C35.7022 347.126 40.0554 346.671 41.3074 346.943C54.8136 349.871 60.0721 368.358 61.4687 380.104C61.6268 381.434 61.7532 382.768 61.8631 384.105Z" fill="#52B848"/>
<g clip-path="url(#clip2_1_105)">
<path fill-rule="evenodd" clip-rule="evenodd" d="M253.371 422.889C250.23 410.694 242.854 401.149 235.198 392.404C220.294 375.378 212.278 364.852 206.966 339.947C203.843 325.299 200.663 309.778 190.755 299.151C183.54 291.412 171.123 284.91 161.475 290.452C146.632 300.763 142.646 321.923 144.143 340.871C145.998 364.356 155.424 378.836 173.531 387.486C183.733 392.358 190.515 398.786 196.054 409.986C200.484 418.943 203.067 430.158 208.634 438.278C216.957 450.415 227.372 455.811 240.21 453.794C228.185 428.045 214.136 402.054 197.191 380.375C195.605 378.195 186.249 369.853 188.136 366.138C190.215 362.048 199.819 377.412 199.751 377.319C204.675 383.898 209.232 390.889 213.707 397.948C213.696 397.954 213.682 397.958 213.67 397.965C218.277 405.208 222.847 412.558 227.331 419.999C229.144 423.147 230.908 426.335 232.598 429.603C235.077 434.398 239.012 448.008 243.069 450.957C243.937 451.587 244.739 451.94 245.489 452.085C248.257 457.36 250.951 462.677 253.512 468.057C260.202 482.109 265.943 496.945 268.578 512.809C269.347 517.439 268.803 534.759 271.519 538.102C276.484 544.216 275.029 532.442 274.732 528.889C272.266 499.46 263.189 474.389 250.009 449.649C254.058 443.495 254.643 427.83 253.371 422.889Z" fill="#026735" fill-opacity="0.5"/>
<path fill-rule="evenodd" clip-rule="evenodd" d="M83.3191 437.108C88.5534 429.93 101.136 428.712 108.832 429.193C118.354 429.787 128.135 432.485 137.195 435.747C152.119 441.121 166.62 450.927 179.764 460.418C181.347 461.561 200.862 475.22 199.134 477.617C197.423 479.992 178.266 463.767 173.997 460.971C164.887 455.002 156.531 447.943 146.489 444.002C136.09 439.92 125.093 438.303 114.159 438.415C112.756 438.429 108.178 437.291 108.079 439.707C107.983 442.07 115.557 440.837 116.893 440.851C122.409 440.91 127.959 441.515 133.397 442.627C143.586 444.712 153.165 448.911 161.891 455.352C159.457 461.941 153.619 464.979 147.496 463.33C142.204 461.904 137.045 458.389 131.863 457.373C128.294 456.673 124.721 457.089 121.26 458.259C112.131 461.347 106.866 467.673 96.8292 463.273C88.9609 459.823 75.8018 447.431 83.3191 437.108Z" fill="#026735" fill-opacity="0.5"/>
<path fill-rule="evenodd" clip-rule="evenodd" d="M89.2393 369.179H91.7155C91.5421 365.522 91.3161 361.87 90.7851 358.254C88.7945 344.697 82.5705 324.786 68.9196 322.586C68.416 322.504 66.5636 322.49 64.3196 322.642C63.256 321.957 62.0647 321.544 60.8095 321.449C49.1872 320.462 36.2078 331.258 30.6016 342.492C26.0822 351.551 26.8436 363.445 29.6351 373.068C31.5043 379.511 35.584 388.697 42.3875 388.786C50.8994 388.898 51.3099 376.786 51.4745 369.704C51.6933 360.29 52.7265 352.089 59.1693 345.672C60.6709 344.177 62.3122 342.862 63.829 341.388C66.204 339.08 68.8287 336.718 69.1346 332.9C69.557 327.634 66.9751 326.686 63.0329 327.665C62.3609 327.831 55.5916 331.329 56.5939 328.564C56.8998 327.72 58.0175 327.051 59.4281 326.549C63.0784 326.092 67.4316 325.562 68.6835 325.879C82.1898 329.29 87.4483 350.831 88.8449 364.517C89.003 366.067 89.1294 367.622 89.2393 369.179Z" fill="#026735" fill-opacity="0.5"/>
</g>
<g clip-path="url(#clip3_1_105)">
<path fill-rule="evenodd" clip-rule="evenodd" d="M267.835 419.324C270.83 407.721 277.862 398.64 285.161 390.319C299.37 374.12 307.013 364.104 312.077 340.408C315.055 326.472 318.087 311.704 327.533 301.593C334.411 294.23 346.249 288.043 355.448 293.316C369.599 303.127 373.399 323.26 371.972 341.288C370.203 363.632 361.217 377.41 343.954 385.639C334.227 390.275 327.761 396.391 322.481 407.048C318.258 415.569 315.795 426.24 310.487 433.966C302.553 445.514 292.623 450.647 280.383 448.729C291.847 424.23 305.242 399.501 321.397 378.873C322.909 376.8 331.829 368.862 330.03 365.328C328.048 361.437 318.891 376.054 318.956 375.966C314.261 382.226 309.917 388.878 305.651 395.593C305.662 395.6 305.674 395.603 305.686 395.61C301.294 402.502 296.936 409.494 292.662 416.575C290.933 419.57 289.251 422.603 287.64 425.712C285.277 430.275 281.525 443.224 277.658 446.029C276.83 446.629 276.065 446.965 275.35 447.103C272.711 452.122 270.143 457.181 267.701 462.3C261.323 475.669 255.849 489.785 253.337 504.879C252.604 509.284 253.122 525.764 250.533 528.944C245.8 534.761 247.187 523.559 247.47 520.178C249.821 492.178 258.475 468.324 271.04 444.785C267.18 438.929 266.623 424.025 267.835 419.324Z" fill="#026735" fill-opacity="0.5"/>
<path fill-rule="evenodd" clip-rule="evenodd" d="M429.961 432.853C424.971 426.023 412.974 424.865 405.637 425.322C396.559 425.887 387.234 428.454 378.597 431.558C364.368 436.671 350.543 446.001 338.012 455.031C336.502 456.119 317.897 469.115 319.544 471.395C321.175 473.655 339.439 458.218 343.51 455.558C352.195 449.878 360.161 443.162 369.736 439.412C379.649 435.528 390.134 433.99 400.559 434.096C401.897 434.11 406.261 433.027 406.355 435.326C406.447 437.574 399.226 436.401 397.952 436.415C392.693 436.471 387.402 437.046 382.217 438.104C372.503 440.088 363.371 444.083 355.051 450.211C357.372 456.48 362.937 459.371 368.775 457.802C373.821 456.446 378.739 453.101 383.679 452.134C387.082 451.468 390.489 451.864 393.789 452.977C402.492 455.915 407.511 461.934 417.081 457.747C424.582 454.466 437.128 442.674 429.961 432.853Z" fill="#026735" fill-opacity="0.5"/>
<path fill-rule="evenodd" clip-rule="evenodd" d="M424.317 368.222H421.956C422.121 364.742 422.337 361.268 422.843 357.827C424.741 344.928 430.675 325.984 443.689 323.89C444.17 323.812 445.936 323.799 448.075 323.943C449.089 323.292 450.225 322.899 451.421 322.808C462.502 321.869 474.876 332.141 480.221 342.83C484.53 351.449 483.804 362.766 481.143 371.922C479.361 378.052 475.471 386.792 468.985 386.877C460.87 386.984 460.478 375.459 460.321 368.721C460.113 359.764 459.128 351.961 452.985 345.856C451.554 344.433 449.989 343.182 448.543 341.779C446.278 339.584 443.776 337.336 443.484 333.704C443.082 328.693 445.543 327.791 449.302 328.722C449.942 328.881 456.396 332.208 455.441 329.578C455.149 328.775 454.083 328.138 452.738 327.661C449.258 327.226 445.108 326.722 443.914 327.023C431.038 330.269 426.024 350.764 424.693 363.786C424.542 365.261 424.422 366.74 424.317 368.222Z" fill="#026735" fill-opacity="0.5"/>
</g>
<path fill-rule="evenodd" clip-rule="evenodd" d="M264.153 447.472C267.184 438.495 274.301 431.468 281.689 425.03C296.072 412.498 303.808 404.748 308.934 386.415C311.949 375.633 315.017 364.207 324.579 356.384C331.541 350.687 343.524 345.901 352.834 349.98C367.158 357.571 371.005 373.148 369.561 387.096C367.77 404.383 358.674 415.043 341.201 421.41C331.355 424.996 324.81 429.728 319.465 437.974C315.19 444.567 312.697 452.823 307.325 458.8C299.293 467.734 289.242 471.706 276.854 470.222C288.457 451.267 302.015 432.135 318.368 416.175C319.899 414.571 328.927 408.43 327.106 405.695C325.1 402.685 315.832 413.994 315.897 413.926C311.145 418.769 306.748 423.916 302.429 429.111C302.44 429.117 302.453 429.119 302.465 429.125C298.019 434.456 293.609 439.866 289.282 445.344C287.532 447.662 285.829 450.008 284.199 452.414C281.807 455.944 278.01 465.963 274.094 468.133C273.257 468.597 272.482 468.857 271.758 468.964C269.087 472.847 266.488 476.761 264.016 480.721C257.561 491.065 252.02 501.987 249.477 513.665C248.735 517.073 249.26 529.823 246.639 532.284C241.848 536.784 243.252 528.117 243.538 525.501C245.918 503.838 254.678 485.383 267.396 467.171C263.489 462.64 262.925 451.109 264.153 447.472Z" fill="#026735"/>
<path fill-rule="evenodd" clip-rule="evenodd" d="M428.257 457.939C423.206 452.655 411.063 451.758 403.637 452.112C394.447 452.55 385.009 454.536 376.266 456.937C361.864 460.893 347.87 468.111 335.186 475.098C333.657 475.94 314.825 485.994 316.492 487.758C318.144 489.507 336.631 477.563 340.751 475.505C349.543 471.111 357.606 465.915 367.297 463.013C377.332 460.009 387.944 458.819 398.496 458.901C399.85 458.911 404.268 458.073 404.363 459.852C404.456 461.592 397.147 460.684 395.858 460.694C390.535 460.738 385.178 461.183 379.93 462.002C370.098 463.536 360.854 466.627 352.433 471.369C354.783 476.219 360.416 478.456 366.325 477.242C371.432 476.192 376.41 473.604 381.411 472.856C384.855 472.341 388.304 472.647 391.643 473.509C400.453 475.782 405.534 480.438 415.22 477.199C422.813 474.66 435.512 465.538 428.257 457.939Z" fill="#52B848"/>
<path fill-rule="evenodd" clip-rule="evenodd" d="M422.544 407.934H420.154C420.322 405.242 420.54 402.554 421.052 399.892C422.973 389.912 428.98 375.255 442.153 373.635C442.639 373.575 444.427 373.565 446.592 373.676C447.618 373.173 448.768 372.868 449.979 372.798C461.195 372.072 473.721 380.019 479.131 388.289C483.492 394.957 482.758 403.713 480.064 410.797C478.26 415.54 474.323 422.302 467.757 422.368C459.543 422.45 459.147 413.534 458.988 408.321C458.777 401.391 457.78 395.354 451.562 390.63C450.113 389.529 448.529 388.561 447.066 387.476C444.774 385.777 442.241 384.038 441.946 381.228C441.538 377.351 444.03 376.654 447.834 377.374C448.482 377.497 455.015 380.071 454.048 378.036C453.752 377.415 452.674 376.922 451.313 376.553C447.79 376.216 443.589 375.826 442.381 376.059C429.347 378.571 424.272 394.428 422.925 404.503C422.772 405.643 422.65 406.788 422.544 407.934Z" fill="#52B848"/>
<path fill-rule="evenodd" clip-rule="evenodd" d="M225.995 430.2C222.854 419.733 215.478 411.542 207.822 404.036C192.918 389.425 184.902 380.39 179.59 359.016C176.466 346.446 173.287 333.124 163.378 324.004C156.164 317.363 143.747 311.783 134.099 316.539C119.256 325.388 115.27 343.548 116.767 359.81C118.622 379.965 128.047 392.392 146.154 399.816C156.357 403.997 163.139 409.513 168.677 419.126C173.107 426.813 175.69 436.438 181.257 443.406C189.58 453.823 199.996 458.454 212.833 456.723C200.809 434.625 186.76 412.319 169.814 393.713C168.228 391.842 158.873 384.682 160.759 381.494C162.838 377.984 172.443 391.17 172.375 391.09C177.299 396.736 181.856 402.736 186.331 408.794C186.319 408.8 186.306 408.803 186.294 408.809C190.901 415.025 195.471 421.333 199.954 427.719C201.768 430.421 203.532 433.157 205.222 435.962C207.701 440.077 211.635 451.757 215.692 454.288C216.56 454.829 217.363 455.132 218.113 455.256C220.881 459.783 223.574 464.347 226.136 468.964C232.825 481.023 238.567 493.756 241.202 507.371C241.971 511.345 241.427 526.209 244.143 529.078C249.108 534.325 247.653 524.221 247.356 521.171C244.89 495.915 235.813 474.398 222.633 453.166C226.682 447.884 227.267 434.44 225.995 430.2Z" fill="#026735"/>
<path fill-rule="evenodd" clip-rule="evenodd" d="M55.9429 442.402C61.1772 436.242 73.76 435.197 81.4556 435.609C90.9781 436.12 100.759 438.435 109.818 441.235C124.742 445.846 139.244 454.262 152.387 462.407C153.971 463.389 173.486 475.111 171.758 477.168C170.047 479.206 150.89 465.282 146.621 462.882C137.51 457.76 129.155 451.702 119.112 448.319C108.714 444.816 97.7172 443.428 86.7828 443.524C85.3794 443.537 80.8019 442.559 80.7032 444.633C80.6065 446.661 88.1805 445.603 89.5164 445.615C95.0326 445.666 100.583 446.184 106.021 447.139C116.21 448.928 125.789 452.532 134.515 458.06C132.08 463.715 126.243 466.322 120.12 464.907C114.828 463.683 109.669 460.666 104.487 459.794C100.918 459.193 97.3446 459.551 93.8838 460.555C84.755 463.205 79.49 468.634 69.453 464.858C61.5847 461.897 48.4256 451.262 55.9429 442.402Z" fill="#026735"/>
<path fill-rule="evenodd" clip-rule="evenodd" d="M61.8631 384.105H64.3394C64.1659 380.966 63.9399 377.832 63.4089 374.728C61.4183 363.093 55.1943 346.005 41.5435 344.117C41.0399 344.047 39.1874 344.035 36.9434 344.165C35.8799 343.578 34.6885 343.222 33.4333 343.141C21.811 342.294 8.83165 351.559 3.22544 361.201C-1.29396 368.975 -0.5326 379.183 2.25886 387.442C4.12814 392.972 8.20784 400.855 15.0113 400.932C23.5232 401.028 23.9337 390.632 24.0983 384.555C24.3171 376.476 25.3503 369.437 31.7931 363.93C33.2947 362.647 34.936 361.518 36.4528 360.253C38.8278 358.273 41.4525 356.245 41.7584 352.969C42.1808 348.449 39.5989 347.636 35.6567 348.476C34.9847 348.619 28.2154 351.62 29.2177 349.248C29.5237 348.523 30.6413 347.949 32.0519 347.518C35.7022 347.126 40.0554 346.671 41.3074 346.943C54.8136 349.871 60.0721 368.358 61.4687 380.104C61.6268 381.434 61.7532 382.768 61.8631 384.105Z" fill="#52B848"/>
<g clip-path="url(#clip4_1_105)">
<path fill-rule="evenodd" clip-rule="evenodd" d="M253.371 422.889C250.23 410.694 242.854 401.149 235.198 392.404C220.294 375.378 212.278 364.852 206.966 339.947C203.843 325.299 200.663 309.778 190.755 299.151C183.54 291.412 171.123 284.91 161.475 290.452C146.632 300.763 142.646 321.923 144.143 340.871C145.998 364.356 155.424 378.836 173.531 387.486C183.733 392.358 190.515 398.786 196.054 409.986C200.484 418.943 203.067 430.158 208.634 438.278C216.957 450.415 227.372 455.811 240.21 453.794C228.185 428.045 214.136 402.054 197.191 380.375C195.605 378.195 186.249 369.853 188.136 366.138C190.215 362.048 199.819 377.412 199.751 377.319C204.675 383.898 209.232 390.889 213.707 397.948C213.696 397.954 213.682 397.958 213.67 397.965C218.277 405.208 222.847 412.558 227.331 419.999C229.144 423.147 230.908 426.335 232.598 429.603C235.077 434.398 239.012 448.008 243.069 450.957C243.937 451.587 244.739 451.94 245.489 452.085C248.257 457.36 250.951 462.677 253.512 468.057C260.202 482.109 265.943 496.945 268.578 512.809C269.347 517.439 268.803 534.759 271.519 538.102C276.484 544.216 275.029 532.442 274.732 528.889C272.266 499.46 263.189 474.389 250.009 449.649C254.058 443.495 254.643 427.83 253.371 422.889Z" fill="#026735" fill-opacity="0.5"/>
<path fill-rule="evenodd" clip-rule="evenodd" d="M83.3191 437.108C88.5534 429.93 101.136 428.712 108.832 429.193C118.354 429.787 128.135 432.485 137.195 435.747C152.119 441.121 166.62 450.927 179.764 460.418C181.347 461.561 200.862 475.22 199.134 477.617C197.423 479.992 178.266 463.767 173.997 460.971C164.887 455.002 156.531 447.943 146.489 444.002C136.09 439.92 125.093 438.303 114.159 438.415C112.756 438.429 108.178 437.291 108.079 439.707C107.983 442.07 115.557 440.837 116.893 440.851C122.409 440.91 127.959 441.515 133.397 442.627C143.586 444.712 153.165 448.911 161.891 455.352C159.457 461.941 153.619 464.979 147.496 463.33C142.204 461.904 137.045 458.389 131.863 457.373C128.294 456.673 124.721 457.089 121.26 458.259C112.131 461.347 106.866 467.673 96.8292 463.273C88.9609 459.823 75.8018 447.431 83.3191 437.108Z" fill="#026735" fill-opacity="0.5"/>
<path fill-rule="evenodd" clip-rule="evenodd" d="M89.2393 369.179H91.7155C91.5421 365.522 91.3161 361.87 90.7851 358.254C88.7945 344.697 82.5705 324.786 68.9196 322.586C68.416 322.504 66.5636 322.49 64.3196 322.642C63.256 321.957 62.0647 321.544 60.8095 321.449C49.1872 320.462 36.2078 331.258 30.6016 342.492C26.0822 351.551 26.8436 363.445 29.6351 373.068C31.5043 379.511 35.584 388.697 42.3875 388.786C50.8994 388.898 51.3099 376.786 51.4745 369.704C51.6933 360.29 52.7265 352.089 59.1693 345.672C60.6709 344.177 62.3122 342.862 63.829 341.388C66.204 339.08 68.8287 336.718 69.1346 332.9C69.557 327.634 66.9751 326.686 63.0329 327.665C62.3609 327.831 55.5916 331.329 56.5939 328.564C56.8998 327.72 58.0175 327.051 59.4281 326.549C63.0784 326.092 67.4316 325.562 68.6835 325.879C82.1898 329.29 87.4483 350.831 88.8449 364.517C89.003 366.067 89.1294 367.622 89.2393 369.179Z" fill="#026735" fill-opacity="0.5"/>
</g>
<g clip-path="url(#clip5_1_105)">
<path fill-rule="evenodd" clip-rule="evenodd" d="M267.835 419.324C270.83 407.721 277.862 398.64 285.161 390.319C299.37 374.12 307.013 364.104 312.077 340.408C315.055 326.472 318.087 311.704 327.533 301.593C334.411 294.23 346.249 288.043 355.448 293.316C369.599 303.127 373.399 323.26 371.972 341.288C370.203 363.632 361.217 377.41 343.954 385.639C334.227 390.275 327.761 396.391 322.481 407.048C318.258 415.569 315.795 426.24 310.487 433.966C302.553 445.514 292.623 450.647 280.383 448.729C291.847 424.23 305.242 399.501 321.397 378.873C322.909 376.8 331.829 368.862 330.03 365.328C328.048 361.437 318.891 376.054 318.956 375.966C314.261 382.226 309.917 388.878 305.651 395.593C305.662 395.6 305.674 395.603 305.686 395.61C301.294 402.502 296.936 409.494 292.662 416.575C290.933 419.57 289.251 422.603 287.64 425.712C285.277 430.275 281.525 443.224 277.658 446.029C276.83 446.629 276.065 446.965 275.35 447.103C272.711 452.122 270.143 457.181 267.701 462.3C261.323 475.669 255.849 489.785 253.337 504.879C252.604 509.284 253.122 525.764 250.533 528.944C245.8 534.761 247.187 523.559 247.47 520.178C249.821 492.178 258.475 468.324 271.04 444.785C267.18 438.929 266.623 424.025 267.835 419.324Z" fill="#026735" fill-opacity="0.5"/>
<path fill-rule="evenodd" clip-rule="evenodd" d="M429.961 432.853C424.971 426.023 412.974 424.865 405.637 425.322C396.559 425.887 387.234 428.454 378.597 431.558C364.368 436.671 350.543 446.001 338.012 455.031C336.502 456.119 317.897 469.115 319.544 471.395C321.175 473.655 339.439 458.218 343.51 455.558C352.195 449.878 360.161 443.162 369.736 439.412C379.649 435.528 390.134 433.99 400.559 434.096C401.897 434.11 406.261 433.027 406.355 435.326C406.447 437.574 399.226 436.401 397.952 436.415C392.693 436.471 387.402 437.046 382.217 438.104C372.503 440.088 363.371 444.083 355.051 450.211C357.372 456.48 362.937 459.371 368.775 457.802C373.821 456.446 378.739 453.101 383.679 452.134C387.082 451.468 390.489 451.864 393.789 452.977C402.492 455.915 407.511 461.934 417.081 457.747C424.582 454.466 437.128 442.674 429.961 432.853Z" fill="#026735" fill-opacity="0.5"/>
<path fill-rule="evenodd" clip-rule="evenodd" d="M424.317 368.222H421.956C422.121 364.742 422.337 361.268 422.843 357.827C424.741 344.928 430.675 325.984 443.689 323.89C444.17 323.812 445.936 323.799 448.075 323.943C449.089 323.292 450.225 322.899 451.421 322.808C462.502 321.869 474.876 332.141 480.221 342.83C484.53 351.449 483.804 362.766 481.143 371.922C479.361 378.052 475.471 386.792 468.985 386.877C460.87 386.984 460.478 375.459 460.321 368.721C460.113 359.764 459.128 351.961 452.985 345.856C451.554 344.433 449.989 343.182 448.543 341.779C446.278 339.584 443.776 337.336 443.484 333.704C443.082 328.693 445.543 327.791 449.302 328.722C449.942 328.881 456.396 332.208 455.441 329.578C455.149 328.775 454.083 328.138 452.738 327.661C449.258 327.226 445.108 326.722 443.914 327.023C431.038 330.269 426.024 350.764 424.693 363.786C424.542 365.261 424.422 366.74 424.317 368.222Z" fill="#026735" fill-opacity="0.5"/>
</g>
<path fill-rule="evenodd" clip-rule="evenodd" d="M264.153 450.631C267.184 441.654 274.301 434.627 281.689 428.189C296.072 415.656 303.808 407.907 308.934 389.574C311.949 378.792 315.017 367.366 324.579 359.543C331.541 353.846 343.524 349.06 352.834 353.139C367.158 360.73 371.005 376.307 369.561 390.255C367.77 407.542 358.674 418.202 341.201 424.569C331.355 428.155 324.81 432.887 319.465 441.133C315.19 447.726 312.697 455.982 307.325 461.959C299.293 470.893 289.242 474.865 276.854 473.381C288.457 454.426 302.015 435.293 318.368 419.334C319.899 417.73 328.927 411.589 327.106 408.854C325.1 405.844 315.832 417.153 315.897 417.085C311.145 421.928 306.748 427.075 302.429 432.27C302.44 432.275 302.453 432.278 302.465 432.284C298.019 437.615 293.609 443.025 289.282 448.503C287.532 450.821 285.829 453.167 284.199 455.573C281.807 459.103 278.01 469.122 274.094 471.292C273.257 471.756 272.482 472.016 271.758 472.123C269.087 476.006 266.488 479.92 264.016 483.88C257.561 494.224 252.02 505.145 249.477 516.824C248.735 520.232 249.26 532.982 246.639 535.442C241.848 539.943 243.252 531.276 243.538 528.66C245.918 506.997 254.678 488.542 267.396 470.33C263.489 465.799 262.925 454.268 264.153 450.631Z" fill="#026735"/>
<path fill-rule="evenodd" clip-rule="evenodd" d="M428.257 461.098C423.206 455.814 411.063 454.917 403.637 455.271C394.447 455.708 385.009 457.694 376.266 460.096C361.864 464.051 347.87 471.27 335.186 478.256C333.657 479.098 314.825 489.153 316.492 490.917C318.144 492.665 336.631 480.722 340.751 478.664C349.543 474.27 357.606 469.074 367.297 466.172C377.332 463.167 387.944 461.978 398.496 462.06C399.85 462.07 404.268 461.232 404.363 463.011C404.456 464.75 397.147 463.843 395.858 463.853C390.535 463.897 385.178 464.341 379.93 465.16C370.098 466.695 360.854 469.786 352.433 474.527C354.783 479.378 360.416 481.614 366.325 480.401C371.432 479.351 376.41 476.763 381.411 476.015C384.855 475.5 388.304 475.806 391.643 476.668C400.453 478.941 405.534 483.597 415.22 480.358C422.813 477.819 435.512 468.696 428.257 461.098Z" fill="#52B848"/>
<path fill-rule="evenodd" clip-rule="evenodd" d="M422.544 411.093H420.154C420.322 408.401 420.54 405.713 421.052 403.05C422.973 393.071 428.98 378.414 442.153 376.794C442.639 376.734 444.427 376.724 446.592 376.835C447.618 376.332 448.768 376.027 449.979 375.957C461.195 375.231 473.721 383.178 479.131 391.448C483.492 398.116 482.758 406.872 480.064 413.956C478.26 418.699 474.323 425.461 467.757 425.526C459.543 425.609 459.147 416.692 458.988 411.48C458.777 404.549 457.78 398.512 451.562 393.788C450.113 392.688 448.529 391.72 447.066 390.635C444.774 388.936 442.241 387.197 441.946 384.387C441.538 380.51 444.03 379.812 447.834 380.533C448.482 380.655 455.015 383.23 454.048 381.195C453.752 380.573 452.674 380.081 451.313 379.712C447.79 379.375 443.589 378.985 442.381 379.218C429.347 381.729 424.272 397.586 422.925 407.661C422.772 408.802 422.65 409.947 422.544 411.093Z" fill="#52B848"/>
<path fill-rule="evenodd" clip-rule="evenodd" d="M225.995 433.358C222.854 422.892 215.478 414.701 207.822 407.195C192.918 392.584 184.902 383.549 179.59 362.175C176.466 349.604 173.287 336.283 163.378 327.163C156.164 320.522 143.747 314.942 134.099 319.698C119.256 328.547 115.27 346.707 116.767 362.969C118.622 383.123 128.047 395.551 146.154 402.975C156.357 407.155 163.139 412.672 168.677 422.285C173.107 429.972 175.69 439.597 181.257 446.565C189.58 456.982 199.996 461.612 212.833 459.882C200.809 437.784 186.76 415.477 169.814 396.871C168.228 395.001 158.873 387.841 160.759 384.653C162.838 381.143 172.443 394.329 172.375 394.249C177.299 399.895 181.856 405.895 186.331 411.953C186.319 411.959 186.306 411.962 186.294 411.968C190.901 418.184 195.471 424.492 199.954 430.878C201.768 433.58 203.532 436.316 205.222 439.121C207.701 443.236 211.635 454.916 215.692 457.447C216.56 457.988 217.363 458.29 218.113 458.415C220.881 462.942 223.574 467.506 226.136 472.123C232.825 484.182 238.567 496.915 241.202 510.53C241.971 514.504 241.427 529.368 244.143 532.237C249.108 537.484 247.653 527.38 247.356 524.33C244.89 499.074 235.813 477.557 222.633 456.325C226.682 451.043 227.267 437.599 225.995 433.358Z" fill="#026735"/>
<path fill-rule="evenodd" clip-rule="evenodd" d="M55.9429 445.561C61.1772 439.401 73.76 438.356 81.4556 438.768C90.9781 439.278 100.759 441.594 109.818 444.394C124.742 449.005 139.244 457.421 152.387 465.566C153.971 466.548 173.486 478.27 171.758 480.327C170.047 482.365 150.89 468.441 146.621 466.041C137.51 460.919 129.155 454.861 119.112 451.478C108.714 447.975 97.7172 446.587 86.7828 446.683C85.3794 446.696 80.8019 445.718 80.7032 447.792C80.6065 449.82 88.1805 448.762 89.5164 448.774C95.0326 448.825 100.583 449.343 106.021 450.298C116.21 452.087 125.789 455.691 134.515 461.219C132.08 466.874 126.243 469.481 120.12 468.066C114.828 466.842 109.669 463.825 104.487 462.953C100.918 462.352 97.3446 462.71 93.8838 463.714C84.755 466.364 79.49 471.793 69.453 468.017C61.5847 465.056 48.4256 454.421 55.9429 445.561Z" fill="#026735"/>
<path fill-rule="evenodd" clip-rule="evenodd" d="M61.8631 387.264H64.3394C64.1659 384.125 63.9399 380.991 63.4089 377.887C61.4183 366.252 55.1943 349.164 41.5435 347.276C41.0399 347.206 39.1874 347.194 36.9434 347.324C35.8799 346.737 34.6885 346.381 33.4333 346.3C21.811 345.453 8.83165 354.718 3.22544 364.36C-1.29396 372.134 -0.5326 382.342 2.25886 390.601C4.12814 396.131 8.20784 404.014 15.0113 404.091C23.5232 404.187 23.9337 393.791 24.0983 387.714C24.3171 379.635 25.3503 372.596 31.7931 367.089C33.2947 365.806 34.936 364.677 36.4528 363.412C38.8278 361.432 41.4525 359.404 41.7584 356.128C42.1808 351.608 39.5989 350.795 35.6567 351.635C34.9847 351.777 28.2154 354.779 29.2177 352.407C29.5237 351.682 30.6413 351.108 32.0519 350.677C35.7022 350.285 40.0554 349.83 41.3074 350.102C54.8136 353.03 60.0721 371.517 61.4687 383.263C61.6268 384.593 61.7532 385.927 61.8631 387.264Z" fill="#52B848"/>
<g clip-path="url(#clip6_1_105)">
<path fill-rule="evenodd" clip-rule="evenodd" d="M253.371 426.048C250.23 413.853 242.854 404.308 235.198 395.562C220.294 378.537 212.278 368.01 206.966 343.105C203.843 328.458 200.663 312.936 190.755 302.31C183.54 294.571 171.123 288.069 161.475 293.611C146.632 303.922 142.646 325.082 144.143 344.03C145.998 367.514 155.424 381.995 173.531 390.645C183.733 395.516 190.515 401.944 196.054 413.145C200.484 422.102 203.067 433.317 208.634 441.436C216.957 453.574 227.372 458.969 240.21 456.953C228.185 431.204 214.136 405.213 197.191 383.533C195.605 381.354 186.249 373.011 188.136 369.297C190.215 365.207 199.819 380.571 199.751 380.478C204.675 387.057 209.232 394.048 213.707 401.106C213.696 401.113 213.682 401.117 213.67 401.124C218.277 408.367 222.847 415.716 227.331 423.158C229.144 426.306 230.908 429.494 232.598 432.762C235.077 437.557 239.012 451.167 243.069 454.116C243.937 454.746 244.739 455.098 245.489 455.244C248.257 460.519 250.951 465.836 253.512 471.216C260.202 485.267 265.943 500.104 268.578 515.968C269.347 520.598 268.803 537.918 271.519 541.261C276.484 547.374 275.029 535.601 274.732 532.047C272.266 502.619 263.189 477.548 250.009 452.808C254.058 446.653 254.643 430.989 253.371 426.048Z" fill="#026735" fill-opacity="0.5"/>
<path fill-rule="evenodd" clip-rule="evenodd" d="M83.3191 440.266C88.5534 433.088 101.136 431.871 108.832 432.351C118.354 432.946 128.135 435.643 137.195 438.906C152.119 444.279 166.62 454.085 179.764 463.576C181.347 464.72 200.862 478.378 199.134 480.775C197.423 483.15 178.266 466.926 173.997 464.129C164.887 458.161 156.531 451.102 146.489 447.16C136.09 443.078 125.093 441.462 114.159 441.573C112.756 441.588 108.178 440.449 108.079 442.865C107.983 445.229 115.557 443.996 116.893 444.01C122.409 444.069 127.959 444.673 133.397 445.786C143.586 447.87 153.165 452.069 161.891 458.51C159.457 465.099 153.619 468.138 147.496 466.489C142.204 465.063 137.045 461.548 131.863 460.531C128.294 459.831 124.721 460.247 121.26 461.418C112.131 464.506 106.866 470.831 96.8292 466.431C88.9609 462.982 75.8018 450.589 83.3191 440.266Z" fill="#026735" fill-opacity="0.5"/>
<path fill-rule="evenodd" clip-rule="evenodd" d="M89.2393 372.338H91.7155C91.5421 368.681 91.3161 365.029 90.7851 361.412C88.7945 347.856 82.5705 327.945 68.9196 325.745C68.416 325.663 66.5636 325.649 64.3196 325.8C63.256 325.116 62.0647 324.702 60.8095 324.607C49.1872 323.621 36.2078 334.417 30.6016 345.651C26.0822 354.709 26.8436 366.604 29.6351 376.227C31.5043 382.67 35.584 391.856 42.3875 391.945C50.8994 392.057 51.3099 379.944 51.4745 372.863C51.6933 363.449 52.7265 355.248 59.1693 348.831C60.6709 347.336 62.3122 346.021 63.829 344.546C66.204 342.239 68.8287 339.876 69.1346 336.059C69.557 330.793 66.9751 329.845 63.0329 330.823C62.3609 330.99 55.5916 334.487 56.5939 331.723C56.8998 330.878 58.0175 330.209 59.4281 329.708C63.0784 329.251 67.4316 328.721 68.6835 329.037C82.1898 332.449 87.4483 353.99 88.8449 367.676C89.003 369.226 89.1294 370.781 89.2393 372.338Z" fill="#026735" fill-opacity="0.5"/>
</g>
<g clip-path="url(#clip7_1_105)">
<path fill-rule="evenodd" clip-rule="evenodd" d="M267.835 422.483C270.83 410.88 277.862 401.799 285.161 393.478C299.37 377.279 307.013 367.263 312.077 343.567C315.055 329.631 318.087 314.862 327.533 304.752C334.411 297.389 346.249 291.202 355.448 296.475C369.599 306.286 373.399 326.419 371.972 344.447C370.203 366.791 361.217 380.568 343.954 388.798C334.227 393.434 327.761 399.55 322.481 410.207C318.258 418.728 315.795 429.399 310.487 437.125C302.553 448.673 292.623 453.806 280.383 451.888C291.847 427.389 305.242 402.66 321.397 382.032C322.909 379.959 331.829 372.021 330.03 368.487C328.048 364.596 318.891 379.213 318.956 379.125C314.261 385.385 309.917 392.037 305.651 398.752C305.662 398.759 305.674 398.762 305.686 398.769C301.294 405.66 296.936 412.653 292.662 419.734C290.933 422.729 289.251 425.762 287.64 428.871C285.277 433.434 281.525 446.383 277.658 449.188C276.83 449.788 276.065 450.123 275.35 450.262C272.711 455.281 270.143 460.34 267.701 465.459C261.323 478.828 255.849 492.944 253.337 508.038C252.604 512.443 253.122 528.923 250.533 532.103C245.8 537.92 247.187 526.718 247.47 523.337C249.821 495.337 258.475 471.483 271.04 447.944C267.18 442.088 266.623 427.184 267.835 422.483Z" fill="#026735" fill-opacity="0.5"/>
<path fill-rule="evenodd" clip-rule="evenodd" d="M429.961 436.012C424.971 429.182 412.974 428.023 405.637 428.481C396.559 429.046 387.234 431.613 378.597 434.717C364.368 439.83 350.543 449.159 338.012 458.19C336.502 459.278 317.897 472.273 319.544 474.554C321.175 476.813 339.439 461.377 343.51 458.716C352.195 453.037 360.161 446.321 369.736 442.571C379.649 438.687 390.134 437.149 400.559 437.255C401.897 437.269 406.261 436.185 406.355 438.484C406.447 440.733 399.226 439.56 397.952 439.573C392.693 439.629 387.402 440.204 382.217 441.263C372.503 443.246 363.371 447.242 355.051 453.37C357.372 459.639 362.937 462.53 368.775 460.961C373.821 459.604 378.739 456.26 383.679 455.292C387.082 454.627 390.489 455.023 393.789 456.136C402.492 459.074 407.511 465.093 417.081 460.906C424.582 457.624 437.128 445.833 429.961 436.012Z" fill="#026735" fill-opacity="0.5"/>
<path fill-rule="evenodd" clip-rule="evenodd" d="M424.317 371.381H421.956C422.121 367.901 422.337 364.426 422.843 360.985C424.741 348.087 430.675 329.143 443.689 327.049C444.17 326.971 445.936 326.958 448.075 327.102C449.089 326.451 450.225 326.057 451.421 325.967C462.502 325.028 474.876 335.3 480.221 345.989C484.53 354.608 483.804 365.925 481.143 375.081C479.361 381.211 475.471 389.951 468.985 390.036C460.87 390.142 460.478 378.617 460.321 371.88C460.113 362.923 459.128 355.12 452.985 349.014C451.554 347.592 449.989 346.341 448.543 344.938C446.278 342.743 443.776 340.495 443.484 336.863C443.082 331.852 445.543 330.95 449.302 331.881C449.942 332.04 456.396 335.367 455.441 332.737C455.149 331.933 454.083 331.297 452.738 330.82C449.258 330.385 445.108 329.88 443.914 330.182C431.038 333.428 426.024 353.923 424.693 366.945C424.542 368.419 424.422 369.899 424.317 371.381Z" fill="#026735" fill-opacity="0.5"/>
</g>
<path fill-rule="evenodd" clip-rule="evenodd" d="M247.492 87.387C244.614 81.1691 243.219 74.2893 245.039 67.7563C250.285 48.933 274.515 61.8946 277.39 73.314C280.265 84.7333 274.589 109.193 267.918 108.738C265.258 108.556 260.247 104.995 255.515 99.5854L253.593 126.659L233.367 119.631L247.492 87.387Z" fill="#B28B67"/>
<path fill-rule="evenodd" clip-rule="evenodd" d="M274.324 64.6713C273.92 64.2138 273.075 63.2515 272.629 62.854C272.524 62.759 271.835 61.854 271.811 61.8541C271.146 61.8617 269.185 62.0606 268.884 62.7167C268.849 62.7622 268.815 62.8046 268.783 62.8407C268.428 63.2443 268.091 63.6673 267.763 64.1002C267.044 65.0506 266.381 66.0747 265.739 67.0961C264.488 69.0854 263.329 71.163 262.224 73.2649C261.099 75.4046 260.065 77.6054 258.97 79.7659C257.394 82.8747 255.591 85.8153 254.022 88.9248C253.02 90.9103 252.257 93.0064 251.939 95.2976C251.935 95.3251 251.93 95.3519 251.927 95.3801C251.925 95.3916 251.924 95.4031 251.923 95.4147C251.876 95.7677 251.84 96.1252 251.815 96.4878C251.795 96.7982 251.775 97.1098 251.757 97.4222C252.894 96.0186 253.879 94.3792 254.882 92.8466C254.98 92.6966 255.075 92.5443 255.169 92.3909C255.449 92.1067 255.733 91.8265 256.018 91.5484C257.819 89.7947 259.623 88.051 261.377 86.2381C264.531 82.9774 267.681 79.6233 271.196 76.8438C272.234 76.023 273.287 75.2257 274.317 74.3923C274.903 73.9181 275.479 73.4292 276.043 72.9239C276.447 72.5625 278.117 71.3947 277.837 70.2472C277.694 69.6601 275.373 65.8582 274.324 64.6713Z" fill="#2C2C2C"/>
<path fill-rule="evenodd" clip-rule="evenodd" d="M273.188 64.3369C273.603 64.6545 273.591 63.5802 273.228 63.0774C271.55 60.7484 263.973 57.4753 256.967 56.6275C252.273 56.0596 246.543 56.7196 242.301 58.6572C238.478 60.404 235.306 64.2348 233.245 68.2855C231.081 72.5389 229.895 77.3462 229.578 82.3703C229.508 83.4739 229.617 84.5869 229.581 85.6782C229.54 86.9072 229.412 88.0595 229.533 89.3111C229.607 90.0775 229.835 90.8829 229.876 91.6421C229.924 92.5084 229.644 93.1971 229.324 93.95C228.803 95.1771 228.222 96.3806 227.522 97.4821C226.471 99.1362 225.302 100.621 224.395 102.402C223.188 104.771 218.635 112.263 220.211 115.286L259.261 128.893C258.869 125.683 256.613 121.28 256.648 118.003C256.668 116.072 257.314 112.065 257.307 111.909C257.763 105.118 256.683 101.423 255.838 99.9239C254.994 98.4252 253.632 97.5802 253.759 96.5797C254.284 92.4416 256.58 89.1013 258.455 85.7218C260.69 81.694 262.597 77.433 264.87 73.4345C265.876 71.6639 271.03 62.688 273.188 64.3369Z" fill="#52B848"/>
<path fill-rule="evenodd" clip-rule="evenodd" d="M258.893 64.1512C256.363 68.6619 255.487 71.2343 254.385 78.2144L253.654 77.961C253.632 71.0055 256.11 65.3244 257.974 63.8327L258.893 64.1512ZM236.227 70.1964C237.519 78.3231 237.908 82.9925 244.458 91.4776L243.767 91.7159C237.034 84.4091 235.939 78.0989 235.581 70.2924L236.227 70.1964ZM249.139 66.8601C248.294 77.4662 247.46 83.4023 251.723 96.803L250.978 96.788C246.225 84.7592 246.79 76.4828 248.475 66.6897L249.139 66.8601ZM235.632 94.5515L236.389 93.9857C243.983 99.5322 241.913 104.828 251.009 114.074L250.036 114.329C241.859 107.26 241.51 98.0603 235.632 94.5515Z" fill="black" fill-opacity="0.2"/>
<path fill-rule="evenodd" clip-rule="evenodd" d="M209.255 206.234C210.74 229.823 306.406 299.273 306.964 301.222C307.212 302.088 297.286 329.464 277.187 383.351L285.55 387.133C316.379 330.063 331.002 298.488 329.418 292.407C327.151 283.7 302.409 255.06 255.192 206.485L209.255 206.234Z" fill="#B28B67"/>
<path fill-rule="evenodd" clip-rule="evenodd" d="M279.388 371.181L293.041 376.965C321.831 339.158 333.116 307.964 331.058 292.07C329.687 281.474 305.03 252.881 257.088 206.292L208.276 206.292C209.941 260.921 298.612 301.429 299.798 303.757C300.984 306.085 289.312 328.885 279.388 371.181Z" fill="#D86666"/>
<path fill-rule="evenodd" clip-rule="evenodd" d="M273.723 381.205C272.088 383.35 271.082 385.051 270.705 386.308C270.247 387.838 269.814 390.173 269.406 393.316C271.045 394.041 285.78 400.557 313.611 412.864C315.991 409.263 315.992 406.751 313.615 405.329C311.238 403.907 309.271 402.702 307.713 401.714L290.136 382.716C289.798 382.351 289.277 382.338 288.973 382.688C288.967 382.694 288.962 382.7 288.957 382.706L286.598 385.589C283.96 385.732 281.925 385.487 280.493 384.854C279.329 384.339 277.874 383.12 276.128 381.196C275.458 380.457 274.416 380.42 273.8 381.112C273.773 381.142 273.748 381.173 273.723 381.205Z" fill="#E4E4E4"/>
<path fill-rule="evenodd" clip-rule="evenodd" d="M220.254 206.234L177.638 325.31L135.752 425.979H145.634L253.752 206.234H220.254Z" fill="#997659"/>
<path fill-rule="evenodd" clip-rule="evenodd" d="M135.161 421.332C134.24 424.194 133.779 426.336 133.779 427.757C133.779 429.486 134.027 432.008 134.521 435.324C136.244 435.324 151.728 435.324 180.973 435.324C182.18 430.68 181.483 428.172 178.882 427.802C176.281 427.432 174.121 427.097 172.401 426.799L150.811 415.597C150.395 415.381 149.908 415.598 149.723 416.082C149.72 416.09 149.717 416.098 149.714 416.107L148.326 420.025C145.919 421.332 143.962 421.986 142.457 421.986C141.234 421.986 139.545 421.411 137.39 420.261C136.563 419.82 135.586 420.243 135.206 421.205C135.19 421.247 135.175 421.289 135.161 421.332Z" fill="#E4E4E4"/>
<path fill-rule="evenodd" clip-rule="evenodd" d="M139.535 405.066L161.493 409.859C178.471 380.807 249.525 261.687 257.315 206.234H208.431C182.415 246.321 155.718 375.534 139.535 405.066Z" fill="#D86666"/>
<path fill-rule="evenodd" clip-rule="evenodd" d="M290.513 204.872L310.25 235.072C316.559 239.767 321.603 244.519 325.382 249.329C326.173 250.838 326.886 253.55 322.478 251.418C318.07 249.287 313.357 247.261 312.273 248.707C311.188 250.152 313.367 253.23 311.486 255.018C310.231 256.21 307.309 250.866 302.717 238.986L280.77 217.864L290.513 204.872ZM187.062 185.277L204.164 189.194C188.382 224.49 179.911 243.195 178.749 245.311C176.136 250.071 179.053 258.869 180.18 263.499C174.213 265.005 176.223 254.918 168.677 256.955C161.789 258.815 156.068 263.703 149.34 256.972C148.513 256.145 147.836 253.577 150.508 252.288C157.165 249.079 166.953 243.044 168.49 240.679C170.586 237.454 176.777 218.987 187.062 185.277Z" fill="#B28B67"/>
<path fill-rule="evenodd" clip-rule="evenodd" d="M247.213 111.912L254.575 112.168C262.208 149.582 279.485 185.936 306.405 221.229L278.829 247.609C253.546 200.332 240.242 154.469 247.213 111.912Z" fill="#FFCE04"/>
<path fill-rule="evenodd" clip-rule="evenodd" d="M202.956 206.527L267.174 221.069C257.827 177.411 255.088 141.503 258.954 113.342L240.024 105.741C221.056 129.563 212.147 162.163 202.956 206.527Z" fill="#DDE3E9"/>
<path fill-rule="evenodd" clip-rule="evenodd" d="M240.113 106.468C240.116 106.464 240.119 106.459 240.122 106.454L241.391 106.741C242.9 107.143 245.197 107.77 248.282 108.624L250.925 124.61C248.92 142.918 246.78 180.243 244.503 236.585L202.281 227.036C201.868 230.869 201.523 234.755 201.244 238.692L169.85 231.591C182.647 173.722 206.064 132.008 240.099 106.449L240.113 106.468Z" fill="#F2B848"/>
<path fill-rule="evenodd" clip-rule="evenodd" d="M211.241 179.217C209.132 203.409 209.908 220.583 213.57 230.739L201.493 228.049C203.367 210.723 206.616 194.445 211.241 179.217Z" fill="black" fill-opacity="0.1"/>
<path fill-rule="evenodd" clip-rule="evenodd" d="M215.02 200.553L236.862 194.656L235.412 205.137L215.02 200.553Z" fill="white" fill-opacity="0.2"/>
<g clip-path="url(#clip8_1_105)">
<path fill-rule="evenodd" clip-rule="evenodd" d="M118.699 155.833C121.011 149.606 121.845 142.883 119.6 136.792C113.132 119.244 90.715 133.925 88.7929 145.137C86.8709 156.348 94.1747 179.258 100.579 178.199C103.132 177.777 107.703 173.897 111.866 168.271L115.742 194.037L134.738 185.414L118.699 155.833Z" fill="#57331F"/>
<path fill-rule="evenodd" clip-rule="evenodd" d="M110.75 157.459C114.432 161.199 118.635 163.378 121.771 161.981C127.728 159.326 129.381 148.752 126.605 139.413C126.508 139.085 126.405 138.762 126.297 138.443C134 140.351 141.62 147.482 149.957 143.767C161.3 138.711 158.388 111.75 142.54 118.813C131.762 123.617 126.97 127.694 123.154 132.264C121.43 129.895 119.363 128.178 117.199 127.3C116.648 126.984 115.887 126.785 114.956 126.702C114.381 126.628 113.805 126.616 113.232 126.669C110.148 126.792 105.925 127.792 101.417 129.609C100.575 129.949 99.7544 130.304 98.9603 130.671C97.5854 126.095 93.0732 123.905 88.8693 125.778C84.6573 127.656 82.3498 132.901 83.7152 137.495C85.0357 141.938 89.3079 144.144 93.3973 142.586C95.9269 142.335 99.0503 141.586 102.398 140.366C102.468 141.812 102.735 143.372 103.233 145.047C103.673 146.526 104.289 148.027 105.038 149.497C105.475 148.259 106.246 147.235 107.211 146.805C109.909 145.602 112.506 147.186 113.27 149.756C114.239 153.018 113.214 156.147 110.75 157.459Z" fill="#191847"/>
<path fill-rule="evenodd" clip-rule="evenodd" d="M182.458 359.508C163.377 365.719 146.915 368.824 133.071 368.824C119.227 368.824 106.368 364.042 94.4939 354.478C113.166 348.103 128.544 344.916 140.627 344.916C152.709 344.916 166.653 349.78 182.458 359.508Z" fill="#DDE3E9"/>
<path fill-rule="evenodd" clip-rule="evenodd" d="M116.553 377.776C116.737 377.454 116.892 377.104 117.015 376.725C119.566 368.876 160.419 284.199 164.488 268.717H118.494C115.4 280.488 101.472 354.354 99.5119 369.092C93.3274 392.338 80.5943 467.626 78.9688 472.841C77.2588 478.328 86.8803 484.044 89.4443 477.299C93.5239 466.566 103.244 436.868 107.572 418.734C111.63 401.734 114.934 386.44 116.553 377.776Z" fill="#3D2216"/>
<path fill-rule="evenodd" clip-rule="evenodd" d="M154.183 388.114C172.86 393.608 241.177 403.539 245.865 405.097C250.688 406.699 254.916 395.131 248.955 392.625C239.47 388.638 213.334 379.425 197.488 375.665C184.742 372.642 173.111 370.174 165.303 368.729C165.964 343.204 168.988 281.947 167.006 268.717H126.31C128.21 281.404 144.278 373.975 147.264 383.241C148.212 386.549 151.039 388.011 154.183 388.114Z" fill="#57331F"/>
<path fill-rule="evenodd" clip-rule="evenodd" d="M248.019 389.67C250.606 389.208 252.506 389.113 253.721 389.386C255.199 389.717 257.317 390.471 260.076 391.65C259.814 393.539 257.458 410.523 253.009 442.601C248.855 443.036 246.818 441.791 246.897 438.867C246.977 435.944 247.019 433.51 247.026 431.566L240.736 405.737C240.615 405.24 240.875 404.748 241.316 404.637C241.324 404.635 241.331 404.634 241.339 404.632L244.899 403.86C246.383 401.47 247.239 399.449 247.468 397.798C247.654 396.457 247.42 394.494 246.765 391.91C246.513 390.919 247.023 389.927 247.904 389.696C247.942 389.686 247.98 389.677 248.019 389.67Z" fill="#E4E4E4"/>
<path fill-rule="evenodd" clip-rule="evenodd" d="M92.3639 476.425C93.2537 479.189 93.6987 481.258 93.6987 482.63C93.6987 484.299 93.4597 486.735 92.9818 489.937C91.3179 489.937 76.3641 489.937 48.1203 489.937C46.9545 485.452 47.6275 483.031 50.1392 482.673C52.6509 482.316 54.7374 481.993 56.3988 481.705L77.25 470.887C77.6512 470.679 78.1214 470.889 78.3003 471.356C78.3034 471.364 78.3063 471.372 78.3092 471.38L79.6495 475.163C81.9747 476.426 83.8642 477.057 85.3179 477.057C86.499 477.057 88.1301 476.502 90.2113 475.392C91.0099 474.966 91.9542 475.374 92.3203 476.303C92.3361 476.343 92.3506 476.384 92.3639 476.425Z" fill="#E4E4E4"/>
<path fill-rule="evenodd" clip-rule="evenodd" d="M166.875 268.717C148.941 262.747 131.973 262.747 115.97 268.717C110.402 298.279 96.8733 310.012 94.4943 355.335C121.538 370.972 154.944 344.182 182.783 359.432C190.737 338.102 179.601 286.734 166.875 268.717Z" fill="#DDE3E9"/>
<path fill-rule="evenodd" clip-rule="evenodd" d="M79.2506 263.437L48.024 259.417C41.9093 255.718 36.2416 253.247 31.0209 252.003C29.5365 251.988 27.1447 252.632 30.5209 255.775C33.8971 258.919 37.3093 262.403 36.6033 264.135C35.8973 265.867 32.6502 265.299 31.987 267.954C31.5449 269.724 36.8491 269.895 47.8996 268.467L72.9059 279.003L79.2506 263.437ZM194.574 228.94L179.295 237.727C202.402 264.864 214.751 279.213 216.34 280.774C219.915 284.286 219.192 293.149 219.197 297.687C225.193 297.223 220.955 288.702 228.569 288.236C235.518 287.811 242.064 290.487 246.874 282.329C247.465 281.326 247.511 278.792 244.684 278.444C237.64 277.576 226.979 275.107 224.977 273.435C222.246 271.156 212.112 256.324 194.574 228.94Z" fill="#57331F"/>
<path fill-rule="evenodd" clip-rule="evenodd" d="M117.918 182.896L110.835 183.919C99.3536 204.763 101.357 244.821 92.5367 253.201C84.1976 261.123 69.9713 261.008 52.9034 260.128L50.5915 273.609C68.5103 285.782 102.046 289.836 112.664 277.441C129.639 257.625 124.263 209.203 117.918 182.896Z" fill="#52B848"/>
<path fill-rule="evenodd" clip-rule="evenodd" d="M170.054 264.965C142.38 274.263 122.024 281.102 108.985 285.483C106.195 286.42 105.782 281.849 105.711 279.497C104.898 252.343 117.177 218.653 109.392 182.226L126.364 173.296C146.395 193.954 158.157 223.722 170.054 264.965Z" fill="#DDE3E9"/>
<path fill-rule="evenodd" clip-rule="evenodd" d="M166.946 241.882C184.557 262.122 198.731 276.192 209.469 284.09L221.636 277.078C201.555 224.253 169.013 191.224 124.012 177.99L120.845 179.055L117.065 180.326C113.827 244.217 117.822 284.72 129.049 301.833L183.798 283.423C179.887 269.454 173.889 255.307 166.946 241.882Z" fill="#52B848"/>
</g>
<path fill-rule="evenodd" clip-rule="evenodd" d="M371.409 109.668C376.261 103.04 379.544 94.9169 378.996 85.8148C377.415 59.5889 346.048 65.3583 339.946 78.5948C333.844 91.8314 334.569 125.407 342.455 127.773C345.6 128.716 352.299 126.405 359.118 121.622L354.838 156.861H380.108L371.409 109.668Z" fill="#B28B67"/>
<path fill-rule="evenodd" clip-rule="evenodd" d="M345.641 69.8662C346.219 69.4642 347.43 68.616 348.044 68.3087C348.189 68.2347 349.206 67.3906 349.233 67.4012C350.003 67.7035 352.231 68.8193 352.423 69.7834C352.452 69.8565 352.481 69.925 352.51 69.9849C352.826 70.6531 353.115 71.3378 353.392 72.0309C353.998 73.5524 354.522 75.1426 355.022 76.7202C355.996 79.7927 356.842 82.9369 357.62 86.0881C358.412 89.2961 359.085 92.5415 359.837 95.7627C360.92 100.398 362.306 104.919 363.382 109.552C364.068 112.511 364.45 115.504 364.27 118.549C364.268 118.586 364.267 118.622 364.264 118.659C364.263 118.674 364.262 118.689 364.26 118.704C364.23 119.172 364.186 119.642 364.128 120.112C364.077 120.515 364.026 120.919 363.971 121.322C362.989 119.042 362.239 116.53 361.443 114.146C361.365 113.913 361.291 113.677 361.218 113.442C360.961 112.958 360.7 112.478 360.435 112C358.767 108.984 357.091 105.979 355.491 102.908C352.613 97.3859 349.762 91.7467 346.35 86.6755C345.343 85.178 344.312 83.7034 343.317 82.1936C342.751 81.3345 342.199 80.461 341.666 79.5719C341.284 78.9362 339.626 76.7202 340.227 75.3888C340.534 74.7076 344.139 70.9094 345.641 69.8662Z" fill="#2C2C2C"/>
<path fill-rule="evenodd" clip-rule="evenodd" d="M347.861 68.4199C347.298 68.6401 347.572 67.2768 348.118 66.797C350.643 64.5744 360.3 63.7679 368.703 65.7982C374.333 67.1584 380.88 70.5436 385.377 74.8957C389.43 78.8191 392.218 85.1085 393.653 91.185C395.16 97.5656 395.388 104.218 394.549 110.761C394.364 112.198 393.968 113.567 393.747 114.974C393.498 116.558 393.371 118.083 392.927 119.625C392.656 120.568 392.195 121.493 391.963 122.442C391.699 123.525 391.86 124.527 392.053 125.628C392.367 127.423 392.756 129.215 393.31 130.929C394.142 133.503 395.151 135.915 395.783 138.586C396.625 142.141 400.146 153.708 397.573 156.861H348.592C349.825 152.946 353.527 148.337 354.277 144.146C354.718 141.676 354.928 136.284 354.974 136.088C356.078 127.232 358.233 123.003 359.583 121.468C360.933 119.934 362.731 119.462 362.824 118.13C363.207 112.624 361.325 107.349 359.946 102.21C358.302 96.0856 357.097 89.8091 355.402 83.7054C354.652 81.0026 350.784 67.2768 347.861 68.4199Z" fill="#026735"/>
<path fill-rule="evenodd" clip-rule="evenodd" d="M365.035 74.7542C366.882 81.5751 367.279 85.2161 366.882 94.536H367.788C369.48 85.7408 367.974 77.4611 366.173 74.7542H365.035ZM389.814 92.3573C386.372 102.078 384.803 107.818 375.191 115.684L375.933 116.289C385.475 109.995 388.254 102.488 390.538 92.7623L389.814 92.3573ZM375.672 82.4653C374.109 96.2626 373.652 104.144 365.508 119.236L366.374 119.545C374.756 106.404 376.085 95.6781 376.481 82.541L375.672 82.4653ZM384.668 123.45L383.927 122.401C373.811 126.089 374.938 133.703 362.197 141.413L363.261 142.164C374.418 136.805 377.026 125.312 384.668 123.45Z" fill="black" fill-opacity="0.2"/>
<path fill-rule="evenodd" clip-rule="evenodd" d="M425.782 310.047H400.764L385.79 462.006H454.867L425.782 310.047Z" fill="black" fill-opacity="0.1"/>
<path fill-rule="evenodd" clip-rule="evenodd" d="M251.7 284.013C243.027 277.951 228.476 285.739 228.486 294.408C228.516 320.344 248.853 442.584 249.915 450.311C250.977 458.039 262.352 460.08 263.014 450.336C264.068 434.833 266.027 381.165 264.067 356.324C263.259 346.07 262.388 336.305 261.53 327.593C272.202 350.023 288.706 382.137 311.043 423.935L323.169 417.487C313.647 380.973 305.839 355.194 299.745 340.152C289.311 314.397 279.527 292.34 275.409 284.571C268.932 272.35 257.657 276.615 251.7 284.013Z" fill="#B28B67"/>
<path fill-rule="evenodd" clip-rule="evenodd" d="M322.303 397.209L280.683 282.458C270.712 263.791 242.757 286.256 246.158 297.083C253.877 321.663 293.136 401.24 295.436 408.563L322.303 397.209Z" fill="#0F3163" fill-opacity="0.95"/>
<path fill-rule="evenodd" clip-rule="evenodd" d="M325.064 409.982C327.573 412.3 329.194 414.21 329.927 415.711C330.819 417.536 331.842 420.389 332.998 424.27C331.066 425.588 313.707 437.437 280.921 459.815C277.172 455.834 276.66 452.653 279.385 450.272C282.11 447.89 284.359 445.884 286.134 444.253L304.562 415.901C304.916 415.356 305.574 415.213 306.031 415.582C306.039 415.588 306.047 415.594 306.054 415.601L309.631 418.677C313.004 418.215 315.535 417.408 317.222 416.256C318.593 415.32 320.19 413.421 322.013 410.558C322.713 409.459 324.027 409.157 324.948 409.884C324.988 409.915 325.026 409.948 325.064 409.982Z" fill="#E4E4E4"/>
<path fill-rule="evenodd" clip-rule="evenodd" d="M265.678 444.117C266.856 447.776 267.445 450.515 267.445 452.332C267.445 454.542 267.128 457.767 266.496 462.006C264.293 462.006 244.497 462.006 207.108 462.006C205.565 456.068 206.456 452.862 209.781 452.389C213.106 451.915 215.868 451.488 218.067 451.106L245.67 436.784C246.201 436.509 246.824 436.787 247.06 437.405C247.064 437.415 247.068 437.426 247.072 437.437L248.846 442.446C251.924 444.117 254.426 444.953 256.35 444.953C257.914 444.953 260.073 444.218 262.828 442.748C263.885 442.184 265.135 442.725 265.62 443.955C265.641 444.008 265.66 444.062 265.678 444.117Z" fill="#E4E4E4"/>
<path fill-rule="evenodd" clip-rule="evenodd" d="M225.569 303.224C225.569 335.782 238.854 411.725 238.862 418.894L267.445 418.92C263.261 351.156 261.778 316.909 262.994 316.179C264.819 315.084 337.806 324.661 359.696 324.661C391.261 324.661 404.319 301.493 405.379 258.576H342.849C330.117 260.162 263.708 275.752 239.045 281.111C228.486 283.405 225.569 294.256 225.569 303.224Z" fill="#0F3163"/>
<path fill-rule="evenodd" clip-rule="evenodd" d="M290.09 243.209L260.263 277.075C251.584 281.384 244.473 286.141 238.93 291.348C237.683 293.098 236.326 296.451 242.191 294.951C248.056 293.45 254.284 292.179 255.386 294.399C256.488 296.619 253.24 300.02 255.277 302.926C256.636 304.863 261.203 298.702 268.98 284.443L299.997 263.16L290.09 243.209ZM435.946 212.559L412.889 212.66C430.45 278.877 439.772 313.548 440.854 316.671C443.291 323.698 438.135 334.401 435.93 340.153C443.111 343.893 442.346 330.043 451.405 334.948C459.673 339.425 465.963 347.537 475.516 340.677C476.69 339.833 477.977 336.657 474.868 334.176C467.121 327.993 455.956 317.172 454.448 313.61C452.391 308.753 446.223 275.07 435.946 212.559Z" fill="#B28B67"/>
<path fill-rule="evenodd" clip-rule="evenodd" d="M365.689 136.435L356.584 134.617C342.241 193.627 268.548 233.85 264.024 255.909C262.365 263.998 267.367 268.088 264.783 270.552L276.618 280.635C278.622 277.913 282.898 282.892 291.829 279.409C300.76 275.927 365.689 206.307 365.689 136.435Z" fill="#52B848"/>
<path fill-rule="evenodd" clip-rule="evenodd" d="M350.373 144.28C351.423 222.404 312.62 242.332 321.263 273.672C328.4 299.552 396.716 327.373 408.538 302.005C413.323 291.736 415.494 279.316 415.74 265.814C418.762 276.187 421.151 285.118 422.909 292.605C425.941 305.521 437.697 307.575 437.697 312.551L453.186 307.575C452.135 300.815 459.437 297.523 457.479 282.42C448.707 214.753 425.139 165.702 386.774 135.27L386.377 128.663C386.215 125.963 384.202 123.927 381.882 124.115L353.522 126.424C351.202 126.612 349.452 128.955 349.614 131.655L350.373 144.28Z" fill="#52B848"/>
<defs>
<clipPath id="clip0_1_105">
<rect width="248.492" height="252.449" fill="white" transform="translate(27.3763 288.298)"/>
</clipPath>
<clipPath id="clip1_1_105">
<rect width="236.91" height="240.194" fill="white" transform="matrix(-1 0 0 1 483.296 291.267)"/>
</clipPath>
<clipPath id="clip2_1_105">
<rect width="248.492" height="252.449" fill="white" transform="translate(27.3763 288.298)"/>
</clipPath>
<clipPath id="clip3_1_105">
<rect width="236.91" height="240.194" fill="white" transform="matrix(-1 0 0 1 483.296 291.267)"/>
</clipPath>
<clipPath id="clip4_1_105">
<rect width="248.492" height="252.449" fill="white" transform="translate(27.3763 288.298)"/>
</clipPath>
<clipPath id="clip5_1_105">
<rect width="236.91" height="240.194" fill="white" transform="matrix(-1 0 0 1 483.296 291.267)"/>
</clipPath>
<clipPath id="clip6_1_105">
<rect width="248.492" height="252.449" fill="white" transform="translate(27.3763 291.457)"/>
</clipPath>
<clipPath id="clip7_1_105">
<rect width="236.91" height="240.194" fill="white" transform="matrix(-1 0 0 1 483.296 294.425)"/>
</clipPath>
<clipPath id="clip8_1_105">
<rect width="279.027" height="410.156" fill="white" transform="matrix(-1 0 0 1 279.027 79.6562)"/>
</clipPath>
</defs>
</svg>
